# xmcd CD database file
#
# Track frame offsets:
#	150
#	21579
#	37188
#	54628
#	80792
#	99500
#	121467
#	137615
#	157008
#	178751
#
# Disc length: 2662 seconds
#
# Revision: 0
# Processed by: cddbd v1.5.2PL0 Copyright (c) Steve Scherf et al.
# Submitted via: CDex 1.79
#
DISCID=900a640a
DTITLE=Adam and the Waxmen - Universal Soldiers
DYEAR=2010
DGENRE=Jazz
TTITLE0=Motown Mornin
TTITLE1=Surrender
TTITLE2=Universal Soldier
TTITLE3=Be here Be now
TTITLE4=Rise
TTITLE5=Pick up the Pieces
TTITLE6=The Leash
TTITLE7=Shelter
TTITLE8=Campo de Fiori
TTITLE9=Restless Woman
EXTD=YEAR: 2010
EXTT0=
EXTT1=
EXTT2=
EXTT3=
EXTT4=
EXTT5=
EXTT6=
EXTT7=
EXTT8=
EXTT9=
PLAYORDER=
